HIERARCHY
ROOT joint_Root
{
	OFFSET 0.0 0.0 0.0
	CHANNELS 6 Xposition Yposition Zposition Zrotation Xrotation Yrotation 
	JOINT Hips
	{
		OFFSET 4.5925 91.4895 -427.239
		CHANNELS 6 Xposition Yposition Zposition Zrotation Xrotation Yrotation 
		JOINT Spine
		{
			OFFSET 15.7357 0.0 0.0
			CHANNELS 6 Xposition Yposition Zposition Zrotation Xrotation Yrotation 
			JOINT Chest
			{
				OFFSET 8.98455 -0.406207 0.0
				CHANNELS 6 Xposition Yposition Zposition Zrotation Xrotation Yrotation 
				JOINT Neck
				{
					OFFSET 16.3773 0.0 0.0
					CHANNELS 6 Xposition Yposition Zposition Zrotation Xrotation Yrotation 
					JOINT Head
					{
						OFFSET 6.45672 0.0 0.0
						CHANNELS 6 Xposition Yposition Zposition Zrotation Xrotation Yrotation 
						End Site
						{
							OFFSET 0.0 0.0 0.0
						}
					}
				}
				JOINT Shoulder_L
				{
					OFFSET 12.9942 -0.242716 4.98039
					CHANNELS 6 Xposition Yposition Zposition Zrotation Xrotation Yrotation 
					JOINT UpperArm_L
					{
						OFFSET 5.34809 0.0 0.0
						CHANNELS 6 Xposition Yposition Zposition Zrotation Xrotation Yrotation 
						JOINT LowerArm_L
						{
							OFFSET 24.3286 1.87007e-05 0.0
							CHANNELS 6 Xposition Yposition Zposition Zrotation Xrotation Yrotation 
							JOINT Hand_L
							{
								OFFSET 22.2916 0.0 0.0
								CHANNELS 6 Xposition Yposition Zposition Zrotation Xrotation Yrotation 
								End Site
								{
									OFFSET 0.0 0.0 0.0
								}
							}
						}
					}
				}
				JOINT Shoulder_R
				{
					OFFSET 12.9945 -0.242716 -4.98039
					CHANNELS 6 Xposition Yposition Zposition Zrotation Xrotation Yrotation 
					JOINT UpperArm_R
					{
						OFFSET -5.34813 0.0 0.0
						CHANNELS 6 Xposition Yposition Zposition Zrotation Xrotation Yrotation 
						JOINT LowerArm_R
						{
							OFFSET -24.3289 0.000322201 0.0
							CHANNELS 6 Xposition Yposition Zposition Zrotation Xrotation Yrotation 
							JOINT Hand_R
							{
								OFFSET -22.2915 -0.000108084 0.0
								CHANNELS 6 Xposition Yposition Zposition Zrotation Xrotation Yrotation 
								End Site
								{
									OFFSET 0.0 0.0 0.0
								}
							}
						}
					}
				}
			}
		}
		JOINT UpperLeg_L
		{
			OFFSET -2.19248 -6.46944 0.0
			CHANNELS 6 Xposition Yposition Zposition Zrotation Xrotation Yrotation 
			JOINT LowerLeg_L
			{
				OFFSET 39.0811 0.0 -1.23785e-05
				CHANNELS 6 Xposition Yposition Zposition Zrotation Xrotation Yrotation 
				JOINT Foot_L
				{
					OFFSET 40.9854 0.0 -1.26872e-05
					CHANNELS 6 Xposition Yposition Zposition Zrotation Xrotation Yrotation 
					JOINT Toes_L
					{
						OFFSET 11.7543 0.0 0.0
						CHANNELS 6 Xposition Yposition Zposition Zrotation Xrotation Yrotation 
						End Site
						{
							OFFSET 0.0 0.0 0.0
						}
					}
				}
			}
		}
		JOINT UpperLeg_R
		{
			OFFSET -2.19251 6.46944 0.0
			CHANNELS 6 Xposition Yposition Zposition Zrotation Xrotation Yrotation 
			JOINT LowerLeg_R
			{
				OFFSET -39.0811 -0.00228153 -0.0401928
				CHANNELS 6 Xposition Yposition Zposition Zrotation Xrotation Yrotation 
				JOINT Foot_R
				{
					OFFSET -40.9854 0.0 0.0
					CHANNELS 6 Xposition Yposition Zposition Zrotation Xrotation Yrotation 
					JOINT Toes_R
					{
						OFFSET -11.7543 0.0 0.0
						CHANNELS 6 Xposition Yposition Zposition Zrotation Xrotation Yrotation 
						End Site
						{
							OFFSET 0.0 0.0 0.0
						}
					}
				}
			}
		}
	}
}
MOTION
Frames:	5
Frame Time:	0.0333333
0.000000 0.000000 0.000000 0.000000 0.000000 -0.000000 0.484729 91.185000 0.785878 89.690600 -4.478920 6.555400 15.735700 0.000005 -0.000001 90.483700 83.565600 -90.976100 8.984550 -0.406207 -0.000000 5.103070 0.119848 -0.989016 16.377300 -0.000001 -0.000001 1.235900 -4.105620 1.377520 6.456720 -0.000001 -0.000000 -5.012520 -4.872150 0.820806 12.994200 -0.242716 4.980390 -91.535900 4.476550 -71.039000 5.348090 -0.000007 -0.000001 -59.684300 35.223600 -18.101500 24.328600 0.000019 0.000005 10.724500 27.186500 -22.515200 22.291600 -0.000001 0.000005 3.224070 5.320900 -0.520820 12.994500 -0.242716 -4.980390 88.351000 9.702420 -80.306000 -5.348130 -0.000001 -0.000004 -62.818200 34.817500 -10.660400 -24.328900 0.000322 -0.000009 -0.883932 -2.378690 -20.372300 -22.291500 -0.000108 -0.000004 14.742300 5.373130 -2.083640 -2.192480 -6.469440 -0.000000 -175.378000 -14.495400 -1.601550 39.081100 -0.000007 -0.000012 -0.186317 0.347076 28.228000 40.985400 -0.000006 -0.000013 0.199914 5.225440 -69.740800 11.754300 -0.000000 0.000003 -0.000123 -0.001225 -16.624400 -2.192510 6.469440 -0.000001 173.932000 21.610300 178.744000 -39.081100 -0.002282 -0.040193 -0.185907 0.356670 27.946200 -40.985400 0.000008 0.000006 2.798370 15.959200 -69.618600 -11.754300 -0.000006 -0.000006 -0.001790 -0.026051 -17.632400
0.000000 0.000000 0.000000 0.000000 0.000000 -0.000000 0.418461 91.218900 0.734180 89.580200 -4.581790 6.364550 15.735700 0.000005 -0.000001 93.519100 83.798000 -93.518600 8.984550 -0.406207 -0.000000 4.614900 0.759993 -0.029718 16.377300 -0.000001 -0.000001 2.267610 -3.292490 0.797358 6.456720 -0.000001 -0.000000 -4.930750 -4.105640 -1.352870 12.994200 -0.242716 4.980390 -90.989200 2.744800 -70.170900 5.348090 -0.000007 -0.000001 -58.175300 23.937600 -19.403400 24.328600 0.000019 0.000005 9.784870 24.514600 -22.569600 22.291600 -0.000001 0.000005 3.331430 5.276140 0.716577 12.994500 -0.242716 -4.980390 88.335800 9.051110 -79.536200 -5.348130 -0.000001 -0.000004 -63.916400 32.052900 -8.565480 -24.328900 0.000322 -0.000009 -0.550747 -1.364000 -21.949500 -22.291500 -0.000108 -0.000004 15.148200 5.371510 -2.032310 -2.192480 -6.469440 -0.000000 -175.403000 -13.986500 -1.792310 39.081100 -0.000007 -0.000012 -0.186334 0.348659 28.121700 40.985400 -0.000006 -0.000013 0.010790 4.645850 -69.649100 11.754300 -0.000000 0.000003 -0.000119 -0.001195 -16.623200 -2.192510 6.469440 -0.000001 173.987000 22.869800 178.635000 -39.081100 -0.002282 -0.040193 -0.140672 0.272085 27.886400 -40.985400 0.000008 0.000006 3.896880 17.009000 -69.861900 -11.754300 -0.000006 -0.000006 -0.001768 -0.025770 -17.621000
0.000000 0.000000 0.000000 0.000000 0.000000 -0.000000 0.322049 91.241800 0.621786 89.647100 -4.320760 6.244120 15.735700 0.000005 -0.000001 96.411100 83.962900 -95.878800 8.984550 -0.406207 -0.000000 4.227550 1.329660 1.014360 16.377300 -0.000001 -0.000001 3.430780 -2.693450 -0.203481 6.456720 -0.000001 -0.000000 -4.182660 -3.462900 -3.849900 12.994200 -0.242716 4.980390 -90.365300 0.993802 -69.816100 5.348090 -0.000007 -0.000001 -54.530200 5.679850 -23.486000 24.328600 0.000019 0.000005 8.223590 19.523200 -23.391600 22.291600 -0.000001 0.000005 7.953230 5.191860 2.898780 12.994500 -0.242716 -4.980390 88.451300 8.213610 -79.283500 -5.348130 -0.000001 -0.000004 -65.038700 29.443500 -6.033180 -24.328900 0.000322 -0.000009 -1.348210 -3.013650 -24.091600 -22.291500 -0.000108 -0.000004 16.030300 5.391690 -2.668730 -2.192480 -6.469440 -0.000000 -175.548000 -13.483200 -2.019460 39.081100 -0.000007 -0.000012 -0.185742 0.348996 28.023000 40.985400 -0.000006 -0.000013 -0.110076 4.393820 -69.476100 11.754300 -0.000000 0.000003 -0.000125 -0.001241 -16.625000 -2.192510 6.469440 -0.000001 173.970000 23.580800 178.486000 -39.081100 -0.002282 -0.040193 -0.123011 0.238392 27.917900 -40.985400 0.000008 0.000006 4.360360 17.301500 -69.966200 -11.754300 -0.000006 -0.000006 -0.001834 -0.026613 -17.655200
0.000000 0.000000 0.000000 0.000000 0.000000 -0.000000 0.249870 91.272100 0.522912 89.843100 -3.912530 6.160890 15.735700 0.000005 -0.000001 97.416800 84.100000 -96.475700 8.984550 -0.406207 -0.000000 3.924790 1.489520 1.829120 16.377300 -0.000001 -0.000001 4.815080 -2.519160 -0.945608 6.456720 -0.000001 -0.000000 -3.315270 -3.496690 -6.700460 12.994200 -0.242716 4.980390 -89.835600 -0.442056 -69.601600 5.348090 -0.000007 -0.000001 -47.829300 -12.022900 -29.533200 24.328600 0.000019 0.000005 3.718720 7.269130 -27.277100 22.291600 -0.000001 0.000005 14.053200 5.151700 3.902730 12.994500 -0.242716 -4.980390 88.598000 7.184910 -78.927800 -5.348130 -0.000001 -0.000004 -65.813300 28.837900 -4.641700 -24.328900 0.000322 -0.000009 -2.594920 -5.542910 -25.126700 -22.291500 -0.000108 -0.000004 15.974500 5.407950 -3.198340 -2.192480 -6.469440 -0.000000 -175.737000 -13.352800 -2.122580 39.081100 -0.000007 -0.000012 -0.184305 0.349759 27.787200 40.985400 -0.000006 -0.000013 -0.097269 4.634990 -69.246400 11.754300 -0.000000 0.000003 -0.000124 -0.001239 -16.624900 -2.192510 6.469440 -0.000001 173.874000 23.781100 178.369000 -39.081100 -0.002282 -0.040193 -0.123180 0.238840 27.905100 -40.985400 0.000008 0.000006 4.330390 17.073100 -69.916600 -11.754300 -0.000006 -0.000006 -0.001833 -0.026610 -17.655100
0.000000 0.000000 0.000000 0.000000 0.000000 -0.000000 0.305703 91.326500 0.472914 90.087600 -3.629900 5.679100 15.735700 0.000005 -0.000001 98.428400 84.369100 -97.285200 8.984550 -0.406207 -0.000000 3.360360 1.604840 2.237010 16.377300 -0.000001 -0.000001 6.264210 -3.055240 -1.596450 6.456720 -0.000001 -0.000000 -2.596570 -4.628720 -8.865340 12.994200 -0.242716 4.980390 -88.982600 -2.658260 -69.051400 5.348090 -0.000007 -0.000001 -42.259000 -28.481400 -36.528000 24.328600 0.000019 0.000005 -8.852560 -11.917400 -36.985600 22.291600 -0.000001 0.000005 21.468700 5.213660 2.407720 12.994500 -0.242716 -4.980390 88.680600 6.413030 -78.348700 -5.348130 -0.000001 -0.000004 -66.217000 28.980200 -3.546120 -24.328900 0.000322 -0.000009 -2.604530 -5.476540 -25.475400 -22.291500 -0.000108 -0.000004 15.169500 5.406950 -3.163900 -2.192480 -6.469440 -0.000000 -176.061000 -13.720800 -2.489780 39.081100 -0.000007 -0.000012 -0.179018 0.345774 27.372300 40.985400 -0.000006 -0.000013 0.068484 5.212250 -68.975000 11.754300 -0.000000 0.000003 -0.000112 -0.001135 -16.621000 -2.192510 6.469440 -0.000001 173.931000 23.314300 177.842000 -39.081100 -0.002282 -0.040193 -0.130727 0.254957 27.731400 -40.985400 0.000008 0.000006 3.872530 16.402500 -69.664600 -11.754300 -0.000006 -0.000006 -0.001648 -0.024217 -17.557800
